<mxfile host="app.diagrams.net" modified="2023-01-15T17:42:11.724Z" agent="5.0 (Macintosh; Intel Mac OS X 10_15_7) AppleWebKit/537.36 (KHTML, like Gecko) Chrome/108.0.0.0 Safari/537.36" version="20.8.5" etag="hM9Hh4jIq6ps4DbrIfNu" type="github">
  <diagram id="TqW6TUjumt4HhKo9PR69" name="arquitectura general">
    <mxGraphModel dx="1434" dy="702" grid="1" gridSize="10" guides="1" tooltips="1" connect="1" arrows="1" fold="1" page="1" pageScale="1" pageWidth="827" pageHeight="1169" math="0" shadow="0">
      <root>
        <mxCell id="0" />
        <mxCell id="1" parent="0" />
        <mxCell id="w8B4p-rNINTWxzfB_ZRa-5" style="edgeStyle=orthogonalEdgeStyle;rounded=0;orthogonalLoop=1;jettySize=auto;html=1;entryX=0;entryY=0.5;entryDx=0;entryDy=0;entryPerimeter=0;" edge="1" parent="1" source="w8B4p-rNINTWxzfB_ZRa-1" target="w8B4p-rNINTWxzfB_ZRa-4">
          <mxGeometry relative="1" as="geometry">
            <Array as="points">
              <mxPoint x="300" y="239" />
              <mxPoint x="300" y="119" />
            </Array>
          </mxGeometry>
        </mxCell>
        <mxCell id="w8B4p-rNINTWxzfB_ZRa-6" value="$connect" style="edgeLabel;html=1;align=center;verticalAlign=middle;resizable=0;points=[];" vertex="1" connectable="0" parent="w8B4p-rNINTWxzfB_ZRa-5">
          <mxGeometry x="0.2727" y="-1" relative="1" as="geometry">
            <mxPoint x="45" y="8" as="offset" />
          </mxGeometry>
        </mxCell>
        <mxCell id="w8B4p-rNINTWxzfB_ZRa-7" style="edgeStyle=orthogonalEdgeStyle;rounded=0;orthogonalLoop=1;jettySize=auto;html=1;" edge="1" parent="1" source="w8B4p-rNINTWxzfB_ZRa-1" target="w8B4p-rNINTWxzfB_ZRa-3">
          <mxGeometry relative="1" as="geometry">
            <Array as="points">
              <mxPoint x="270" y="239" />
              <mxPoint x="270" y="239" />
            </Array>
          </mxGeometry>
        </mxCell>
        <mxCell id="w8B4p-rNINTWxzfB_ZRa-8" value="$disconnect" style="edgeLabel;html=1;align=center;verticalAlign=middle;resizable=0;points=[];" vertex="1" connectable="0" parent="w8B4p-rNINTWxzfB_ZRa-7">
          <mxGeometry x="0.3385" y="2" relative="1" as="geometry">
            <mxPoint x="-3" y="13" as="offset" />
          </mxGeometry>
        </mxCell>
        <mxCell id="w8B4p-rNINTWxzfB_ZRa-9" style="edgeStyle=orthogonalEdgeStyle;rounded=0;orthogonalLoop=1;jettySize=auto;html=1;entryX=0;entryY=0.5;entryDx=0;entryDy=0;entryPerimeter=0;" edge="1" parent="1" source="w8B4p-rNINTWxzfB_ZRa-1" target="w8B4p-rNINTWxzfB_ZRa-2">
          <mxGeometry relative="1" as="geometry">
            <Array as="points">
              <mxPoint x="300" y="239" />
              <mxPoint x="300" y="359" />
            </Array>
          </mxGeometry>
        </mxCell>
        <mxCell id="w8B4p-rNINTWxzfB_ZRa-10" value="$default" style="edgeLabel;html=1;align=center;verticalAlign=middle;resizable=0;points=[];" vertex="1" connectable="0" parent="w8B4p-rNINTWxzfB_ZRa-9">
          <mxGeometry x="-0.198" y="-1" relative="1" as="geometry">
            <mxPoint x="71" y="64" as="offset" />
          </mxGeometry>
        </mxCell>
        <mxCell id="w8B4p-rNINTWxzfB_ZRa-15" style="edgeStyle=orthogonalEdgeStyle;rounded=0;orthogonalLoop=1;jettySize=auto;html=1;entryX=0.5;entryY=1;entryDx=0;entryDy=0;entryPerimeter=0;" edge="1" parent="1" source="w8B4p-rNINTWxzfB_ZRa-1" target="w8B4p-rNINTWxzfB_ZRa-14">
          <mxGeometry relative="1" as="geometry" />
        </mxCell>
        <mxCell id="w8B4p-rNINTWxzfB_ZRa-17" style="edgeStyle=orthogonalEdgeStyle;rounded=0;orthogonalLoop=1;jettySize=auto;html=1;entryX=0;entryY=0.5;entryDx=0;entryDy=0;entryPerimeter=0;" edge="1" parent="1" source="w8B4p-rNINTWxzfB_ZRa-1" target="w8B4p-rNINTWxzfB_ZRa-16">
          <mxGeometry relative="1" as="geometry">
            <Array as="points">
              <mxPoint x="300" y="239" />
              <mxPoint x="300" y="479" />
            </Array>
          </mxGeometry>
        </mxCell>
        <mxCell id="w8B4p-rNINTWxzfB_ZRa-18" value="[appointments] List items" style="edgeLabel;html=1;align=center;verticalAlign=middle;resizable=0;points=[];" vertex="1" connectable="0" parent="w8B4p-rNINTWxzfB_ZRa-17">
          <mxGeometry x="0.8982" relative="1" as="geometry">
            <mxPoint x="-48" y="11" as="offset" />
          </mxGeometry>
        </mxCell>
        <mxCell id="w8B4p-rNINTWxzfB_ZRa-21" style="edgeStyle=orthogonalEdgeStyle;rounded=0;orthogonalLoop=1;jettySize=auto;html=1;entryX=0;entryY=0.5;entryDx=0;entryDy=0;entryPerimeter=0;" edge="1" parent="1" source="w8B4p-rNINTWxzfB_ZRa-1" target="w8B4p-rNINTWxzfB_ZRa-20">
          <mxGeometry relative="1" as="geometry">
            <Array as="points">
              <mxPoint x="300" y="239" />
              <mxPoint x="300" y="599" />
            </Array>
          </mxGeometry>
        </mxCell>
        <mxCell id="w8B4p-rNINTWxzfB_ZRa-22" value="[specialities] List items" style="edgeLabel;html=1;align=center;verticalAlign=middle;resizable=0;points=[];" vertex="1" connectable="0" parent="w8B4p-rNINTWxzfB_ZRa-21">
          <mxGeometry x="0.8559" y="-1" relative="1" as="geometry">
            <mxPoint x="-30" y="20" as="offset" />
          </mxGeometry>
        </mxCell>
        <mxCell id="w8B4p-rNINTWxzfB_ZRa-24" style="edgeStyle=orthogonalEdgeStyle;rounded=0;orthogonalLoop=1;jettySize=auto;html=1;entryX=0;entryY=0.5;entryDx=0;entryDy=0;entryPerimeter=0;" edge="1" parent="1" source="w8B4p-rNINTWxzfB_ZRa-1" target="w8B4p-rNINTWxzfB_ZRa-23">
          <mxGeometry relative="1" as="geometry">
            <Array as="points">
              <mxPoint x="300" y="239" />
              <mxPoint x="300" y="719" />
            </Array>
          </mxGeometry>
        </mxCell>
        <mxCell id="w8B4p-rNINTWxzfB_ZRa-25" value="[client] Get profile" style="edgeLabel;html=1;align=center;verticalAlign=middle;resizable=0;points=[];" vertex="1" connectable="0" parent="w8B4p-rNINTWxzfB_ZRa-24">
          <mxGeometry x="0.8519" y="3" relative="1" as="geometry">
            <mxPoint x="-29" y="14" as="offset" />
          </mxGeometry>
        </mxCell>
        <mxCell id="w8B4p-rNINTWxzfB_ZRa-1" value="wss api gateway endpoint" style="sketch=0;points=[[0,0,0],[0.25,0,0],[0.5,0,0],[0.75,0,0],[1,0,0],[0,1,0],[0.25,1,0],[0.5,1,0],[0.75,1,0],[1,1,0],[0,0.25,0],[0,0.5,0],[0,0.75,0],[1,0.25,0],[1,0.5,0],[1,0.75,0]];outlineConnect=0;fontColor=#232F3E;gradientColor=#945DF2;gradientDirection=north;fillColor=#5A30B5;strokeColor=#ffffff;dashed=0;verticalLabelPosition=bottom;verticalAlign=top;align=center;html=1;fontSize=12;fontStyle=0;aspect=fixed;shape=mxgraph.aws4.resourceIcon;resIcon=mxgraph.aws4.api_gateway;" vertex="1" parent="1">
          <mxGeometry x="160" y="200" width="78" height="78" as="geometry" />
        </mxCell>
        <mxCell id="w8B4p-rNINTWxzfB_ZRa-2" value="" style="sketch=0;points=[[0,0,0],[0.25,0,0],[0.5,0,0],[0.75,0,0],[1,0,0],[0,1,0],[0.25,1,0],[0.5,1,0],[0.75,1,0],[1,1,0],[0,0.25,0],[0,0.5,0],[0,0.75,0],[1,0.25,0],[1,0.5,0],[1,0.75,0]];outlineConnect=0;fontColor=#232F3E;gradientColor=#F78E04;gradientDirection=north;fillColor=#D05C17;strokeColor=#ffffff;dashed=0;verticalLabelPosition=bottom;verticalAlign=top;align=center;html=1;fontSize=12;fontStyle=0;aspect=fixed;shape=mxgraph.aws4.resourceIcon;resIcon=mxgraph.aws4.lambda;" vertex="1" parent="1">
          <mxGeometry x="440" y="320" width="78" height="78" as="geometry" />
        </mxCell>
        <mxCell id="w8B4p-rNINTWxzfB_ZRa-3" value="" style="sketch=0;points=[[0,0,0],[0.25,0,0],[0.5,0,0],[0.75,0,0],[1,0,0],[0,1,0],[0.25,1,0],[0.5,1,0],[0.75,1,0],[1,1,0],[0,0.25,0],[0,0.5,0],[0,0.75,0],[1,0.25,0],[1,0.5,0],[1,0.75,0]];outlineConnect=0;fontColor=#232F3E;gradientColor=#F78E04;gradientDirection=north;fillColor=#D05C17;strokeColor=#ffffff;dashed=0;verticalLabelPosition=bottom;verticalAlign=top;align=center;html=1;fontSize=12;fontStyle=0;aspect=fixed;shape=mxgraph.aws4.resourceIcon;resIcon=mxgraph.aws4.lambda;" vertex="1" parent="1">
          <mxGeometry x="440" y="200" width="78" height="78" as="geometry" />
        </mxCell>
        <mxCell id="w8B4p-rNINTWxzfB_ZRa-4" value="" style="sketch=0;points=[[0,0,0],[0.25,0,0],[0.5,0,0],[0.75,0,0],[1,0,0],[0,1,0],[0.25,1,0],[0.5,1,0],[0.75,1,0],[1,1,0],[0,0.25,0],[0,0.5,0],[0,0.75,0],[1,0.25,0],[1,0.5,0],[1,0.75,0]];outlineConnect=0;fontColor=#232F3E;gradientColor=#F78E04;gradientDirection=north;fillColor=#D05C17;strokeColor=#ffffff;dashed=0;verticalLabelPosition=bottom;verticalAlign=top;align=center;html=1;fontSize=12;fontStyle=0;aspect=fixed;shape=mxgraph.aws4.resourceIcon;resIcon=mxgraph.aws4.lambda;" vertex="1" parent="1">
          <mxGeometry x="440" y="80" width="78" height="78" as="geometry" />
        </mxCell>
        <mxCell id="w8B4p-rNINTWxzfB_ZRa-13" value="" style="group" vertex="1" connectable="0" parent="1">
          <mxGeometry x="670" y="40" width="140" height="660" as="geometry" />
        </mxCell>
        <mxCell id="w8B4p-rNINTWxzfB_ZRa-12" value="" style="rounded=1;whiteSpace=wrap;html=1;" vertex="1" parent="w8B4p-rNINTWxzfB_ZRa-13">
          <mxGeometry width="140" height="660" as="geometry" />
        </mxCell>
        <mxCell id="w8B4p-rNINTWxzfB_ZRa-11" value="" style="sketch=0;points=[[0,0,0],[0.25,0,0],[0.5,0,0],[0.75,0,0],[1,0,0],[0,1,0],[0.25,1,0],[0.5,1,0],[0.75,1,0],[1,1,0],[0,0.25,0],[0,0.5,0],[0,0.75,0],[1,0.25,0],[1,0.5,0],[1,0.75,0]];outlineConnect=0;fontColor=#232F3E;gradientColor=#4D72F3;gradientDirection=north;fillColor=#3334B9;strokeColor=#ffffff;dashed=0;verticalLabelPosition=bottom;verticalAlign=top;align=center;html=1;fontSize=12;fontStyle=0;aspect=fixed;shape=mxgraph.aws4.resourceIcon;resIcon=mxgraph.aws4.dynamodb;shadow=1;" vertex="1" parent="w8B4p-rNINTWxzfB_ZRa-13">
          <mxGeometry x="31" y="264" width="78" height="78" as="geometry" />
        </mxCell>
        <mxCell id="w8B4p-rNINTWxzfB_ZRa-14" value="authorizer" style="sketch=0;points=[[0,0,0],[0.25,0,0],[0.5,0,0],[0.75,0,0],[1,0,0],[0,1,0],[0.25,1,0],[0.5,1,0],[0.75,1,0],[1,1,0],[0,0.25,0],[0,0.5,0],[0,0.75,0],[1,0.25,0],[1,0.5,0],[1,0.75,0]];outlineConnect=0;fontColor=#232F3E;gradientColor=#F78E04;gradientDirection=north;fillColor=#D05C17;strokeColor=#ffffff;dashed=0;verticalLabelPosition=bottom;verticalAlign=top;align=center;html=1;fontSize=12;fontStyle=0;aspect=fixed;shape=mxgraph.aws4.resourceIcon;resIcon=mxgraph.aws4.lambda;shadow=1;" vertex="1" parent="1">
          <mxGeometry x="160" y="50" width="78" height="78" as="geometry" />
        </mxCell>
        <mxCell id="w8B4p-rNINTWxzfB_ZRa-16" value="" style="sketch=0;points=[[0,0,0],[0.25,0,0],[0.5,0,0],[0.75,0,0],[1,0,0],[0,1,0],[0.25,1,0],[0.5,1,0],[0.75,1,0],[1,1,0],[0,0.25,0],[0,0.5,0],[0,0.75,0],[1,0.25,0],[1,0.5,0],[1,0.75,0]];outlineConnect=0;fontColor=#232F3E;gradientColor=#F78E04;gradientDirection=north;fillColor=#D05C17;strokeColor=#ffffff;dashed=0;verticalLabelPosition=bottom;verticalAlign=top;align=center;html=1;fontSize=12;fontStyle=0;aspect=fixed;shape=mxgraph.aws4.resourceIcon;resIcon=mxgraph.aws4.lambda;shadow=1;" vertex="1" parent="1">
          <mxGeometry x="440" y="440" width="78" height="78" as="geometry" />
        </mxCell>
        <mxCell id="w8B4p-rNINTWxzfB_ZRa-20" value="" style="sketch=0;points=[[0,0,0],[0.25,0,0],[0.5,0,0],[0.75,0,0],[1,0,0],[0,1,0],[0.25,1,0],[0.5,1,0],[0.75,1,0],[1,1,0],[0,0.25,0],[0,0.5,0],[0,0.75,0],[1,0.25,0],[1,0.5,0],[1,0.75,0]];outlineConnect=0;fontColor=#232F3E;gradientColor=#F78E04;gradientDirection=north;fillColor=#D05C17;strokeColor=#ffffff;dashed=0;verticalLabelPosition=bottom;verticalAlign=top;align=center;html=1;fontSize=12;fontStyle=0;aspect=fixed;shape=mxgraph.aws4.resourceIcon;resIcon=mxgraph.aws4.lambda;shadow=1;" vertex="1" parent="1">
          <mxGeometry x="440" y="560" width="78" height="78" as="geometry" />
        </mxCell>
        <mxCell id="w8B4p-rNINTWxzfB_ZRa-23" value="" style="sketch=0;points=[[0,0,0],[0.25,0,0],[0.5,0,0],[0.75,0,0],[1,0,0],[0,1,0],[0.25,1,0],[0.5,1,0],[0.75,1,0],[1,1,0],[0,0.25,0],[0,0.5,0],[0,0.75,0],[1,0.25,0],[1,0.5,0],[1,0.75,0]];outlineConnect=0;fontColor=#232F3E;gradientColor=#F78E04;gradientDirection=north;fillColor=#D05C17;strokeColor=#ffffff;dashed=0;verticalLabelPosition=bottom;verticalAlign=top;align=center;html=1;fontSize=12;fontStyle=0;aspect=fixed;shape=mxgraph.aws4.resourceIcon;resIcon=mxgraph.aws4.lambda;shadow=1;" vertex="1" parent="1">
          <mxGeometry x="440" y="680" width="78" height="78" as="geometry" />
        </mxCell>
      </root>
    </mxGraphModel>
  </diagram>
</mxfile>
